<?xml version="1.0" encoding="UTF-8"?>
<svg id="svg36" xmlns="http://www.w3.org/2000/svg" version="1.1" xmlns:inkscape="http://www.inkscape.org/namespaces/inkscape" xmlns:sodipodi="http://sodipodi.sourceforge.net/DTD/sodipodi-0.dtd" xmlns:svg="http://www.w3.org/2000/svg" xmlns:xlink="http://www.w3.org/1999/xlink" viewBox="0 0 1311 1286.7">
  <!-- Generator: Adobe Illustrator 29.2.1, SVG Export Plug-In . SVG Version: 2.1.0 Build 116)  -->
  <defs>
    <style>
      .st0 {
        clip-path: url(#clippath-6);
      }

      .st1 {
        clip-path: url(#clippath-7);
      }

      .st2 {
        clip-path: url(#clippath-4);
      }

      .st3 {
        clip-path: url(#clippath-9);
      }

      .st4 {
        fill: #fff;
      }

      .st5 {
        fill: none;
      }

      .st6 {
        clip-path: url(#clippath-1);
      }

      .st7 {
        fill: #231f20;
      }

      .st8 {
        clip-path: url(#clippath-5);
      }

      .st9 {
        clip-path: url(#clippath-8);
      }

      .st10 {
        clip-path: url(#clippath-3);
      }

      .st11 {
        fill: #b8860b;
      }

      .st12 {
        clip-path: url(#clippath-2);
      }

      .st13 {
        clip-path: url(#clippath);
      }
    </style>
    <clipPath id="clippath">
      <rect class="st5" x="-2450.9" y="-196.9" width="3109.9" height="1749.3"/>
    </clipPath>
    <clipPath id="clippath-1">
      <rect class="st5" x="-2081" y="-845.2" width="2560" height="1440"/>
    </clipPath>
    <clipPath id="clippath-2">
      <rect class="st5" x="-2580.9" y="-1423.6" width="2897.1" height="1629.6"/>
    </clipPath>
    <clipPath id="clippath-3">
      <rect class="st5" x="-1483.2" y="-926.9" width="5138.8" height="2890.6"/>
    </clipPath>
    <clipPath id="clippath-4">
      <rect class="st5" x="-5005.8" y="-390.9" width="3109.9" height="1749.3"/>
    </clipPath>
    <clipPath id="clippath-5">
      <rect class="st5" x="-5005.8" y="-390.9" width="3109.9" height="1749.3"/>
    </clipPath>
    <clipPath id="clippath-6">
      <rect class="st5" x="-5005.8" y="-390.9" width="3109.9" height="1749.3"/>
    </clipPath>
    <clipPath id="clippath-7">
      <rect class="st5" x="-5005.8" y="-390.9" width="3109.9" height="1749.3"/>
    </clipPath>
    <clipPath id="clippath-8">
      <rect class="st5" x="-5005.8" y="-390.9" width="3109.9" height="1749.3"/>
    </clipPath>
    <clipPath id="clippath-9">
      <rect class="st5" x="-5005.8" y="-390.9" width="3109.9" height="1749.3"/>
    </clipPath>
  </defs>
  <g class="st13">
    <path id="path13" d="M-880.1,461.3l-1.1-24.4,32.9,8.6,7.8,32.2-39.6-16.4h0ZM-645.6,631c-1.2-1.2-117.2-229.7-118.8-230.4-5-.7-249.8-175.1-255.5-171.2-2.8,3.6-293.9,134-293.1,140.7l-15.7,142.3c-.5,4.7,5.6,7.2,8.5,3.4,1.9-2.8,69.4-99.5,69.7-99,1.1-1.3-1.7-4.7,1.3-7.2,2.8.2,197-32.9,203.7-36.7,2.4-2.7,6.3-.4,7.4,2.9h0c5.7,7,28.1,25.9,34.4,31.7,6,1.9,6.9,9.7,0,10l-56.1-6.2c-1,0-1.9,0-2.9.6-.5,1.5-63.9,29.9-60.1,32.9l-.2,38.4c-5,5.5,64.9,29,66,31.1,1,.6,2.1.9,3.2.6l59.5-10.7c3.3-.5,6,2.3,5.3,5.6l-29.8,157.4c-.4,2.1.6,4,2.4,5l215.3,117.6c3.4,1.8,7.5-1,6.9-4.9l-23.9-152.8c-.6-3.9,3.4-6.7,6.9-4.9.9,1.7,51.4,24.2,47.1,28.7l-3.6,33.2c0,.9,0,1.7.4,2.6l39.2,83.1c1.9,4,7.9,3.4,8.9-1l20-85.9c0-5.5,59.8-50.3,53.7-56.7" sodipodi:nodetypes="cccccccccccccccczcccccccccccssccccccccccccccccccccccccccc"/>
  </g>
  <g class="st6">
    <path id="path14" d="M-788-303.4l-.9-20.1,27.1,7.1,6.4,26.5-32.6-13.5ZM-594.9-163.7c-1-1-96.5-189.1-97.8-189.7-4.1-.6-205.6-144.1-210.3-140.9-2.3,3-241.9,110.3-241.3,115.8l-12.9,117.1c-.4,3.9,4.6,5.9,7,2.8,1.6-2.3,57.1-81.9,57.4-81.5.9-1.1-1.4-3.9,1.1-5.9,2.3.2,162.2-27.1,167.7-30.2h0c2-2.2,5.2-.3,6.1,2.4h0c4.7,5.8,23.1,21.3,28.3,26.1,4.9,1.6,5.7,8,0,8.2l-46.2-5.1c-.8,0-1.6,0-2.4.5-.4,1.2-52.6,24.6-49.5,27.1l-.2,31.6c-4.1,4.5,53.4,23.9,54.3,25.6.8.5,1.7.7,2.6.5l49-8.8c2.7-.4,4.9,1.9,4.4,4.6l-24.5,129.6c-.3,1.7.5,3.3,2,4.1l177.2,96.8c2.8,1.5,6.2-.8,5.7-4l-19.7-125.8c-.5-3.2,2.8-5.5,5.7-4,.7,1.4,42.3,19.9,38.8,23.6l-3,27.3c0,.7,0,1.4.3,2.1l32.3,68.4c1.6,3.3,6.5,2.8,7.3-.8l16.5-70.7c0-4.5,49.2-41.4,44.2-46.7" sodipodi:nodetypes="cccccccccccccccczcccccccccccssccccccccccccccccccccccccccc"/>
  </g>
  <path id="path151" d="M-935.4-212.9c.6,22.6,1,55.9-14.1,70.8-19,23.7-62.8,21.8-80.7-3.9-19.7-24.3-20-92.8,0-116.9,22.6-30.1,74.5-26.9,89.8,14.3l-32.4,13.3c-6.1-15.4-24.7-20.1-31.6-3-5.5,11.6-6.2,56.5.6,68.1,9.9,19.7,34.7,11.2,33.1-13.7h-15.8v-29h51.2-.1Z"/>
  <g class="st12">
    <path id="path30" d="M-1312.9-589.6l-1-22.7,30.7,8,7.2,30-36.9-15.3h0ZM-1094.4-431.5c-1.1-1.1-109.2-214-110.7-214.7-4.6-.7-220.8-142.1-226.1-138.5-2.6,3.4-218.9,84.6-218.2,90.9l-14.6,132.5c-.5,4.4,5.2,6.7,7.9,3.2,1.8-2.6,63.2-95.3,63.6-94.8.7-1.9-.5-2.6,2.6-4.1,2.6.2,116.8-11.4,123-14.9,2.3-2.5,5.9-.3,6.9,2.7h0c5.3,6.6,26.1,24.1,32,29.5,5.5,1.8,6.5,9.1,0,9.3l-52.3-5.8c-.9,0-1.8,0-2.7.6-.5,1.4-59.5,27.8-56,30.7l-.2,35.8c-4.6,5.1,60.4,27,61.4,29,.9.6,1.9.8,2.9.6l55.5-10c3.1-.5,5.5,2.2,5,5.2l-27.7,146.7c-.3,1.9.6,3.7,2.3,4.6l200.5,109.5c3.2,1.7,7-.9,6.5-4.5l-22.3-142.4c-.6-3.6,3.2-6.2,6.5-4.5.8,1.6,47.9,22.5,43.9,26.7l-3.4,30.9c0,.8,0,1.6.3,2.4l36.6,77.4c1.8,3.7,7.4,3.2,8.3-.9l18.7-80c0-5.1,55.7-46.9,50-52.8" sodipodi:nodetypes="cccccccccccccccczcccccccccccssccccccccc"/>
  </g>
  <path id="path16" class="st11" d="M688.8,19.8c-120-6.4-239.5,21.7-343.9,80.8C44.1,270.5-61.2,650.5,109.8,949.4c171,299,553.6,403.9,855.1,234.5,301.4-169.3,407.7-548.9,237.6-848.1l-1.7-3C1094.9,148.9,902.1,30.9,689,19.9h-.1ZM687.4,43.8c204.9,10.7,390.2,124.1,492,300.9l1.7,2.9c163.6,287.7,61.4,652.5-228.5,815.1-289.7,162.7-657.6,61.8-821.8-225.6C-33.5,649.7,67.7,284.7,356.8,121.3c100.5-56.6,215.3-83.7,330.5-77.7h0v.3Z"/>
  <g class="st10">
    <path id="path13-1" class="st4" d="M729.2,564.7l-1.6-36.6,49.4,12.9,11.7,48.2-59.4-24.6h-.1ZM1080.7,819c-1.8-1.8-175.7-344.3-178.1-345.4-7.5-1.1-355.2-228.6-363.7-222.8-4.2,5.5-352,136.2-351,146.2l-23.5,213.3c-.8,7.1,8.4,10.8,12.7,5.1,2.9-4.2,101.6-153.2,102.3-152.6,1.1-3.2-.9-4.2,4.2-6.6,4.2.4,187.9-18.4,197.9-24,3.7-4.1,9.5-.5,11.2,4.3h0c8.5,10.5,42,38.7,51.5,47.5,8.9,2.9,10.4,14.6,0,15l-84.2-9.3c-1.4,0-2.9,0-4.3.9-.8,2.2-95.7,44.8-90.1,49.4l-.4,57.5c-7.5,8.1,97.2,43.5,98.9,46.6,1.4.9,3.2,1.3,4.7.9l89.2-16c4.9-.8,8.9,3.4,8,8.4l-44.6,236c-.5,3.2.9,6,3.7,7.5l322.6,176.2c5.1,2.8,11.3-1.4,10.4-7.2l-35.8-229c-.9-5.8,5.1-10,10.4-7.2,1.3,2.5,76.9,36.2,70.6,42.9l-5.5,49.6c0,1.3,0,2.5.5,3.8l58.8,124.5c2.9,6,11.8,5.1,13.3-1.4l30.1-128.7c0-6.7,61.6-54.2,77.5-75.6,15.9-21.4,4.6-7.7,3-9.3" sodipodi:nodetypes="cccccccccccccccczcccccccccccssccccccccc"/>
  </g>
  <g>
    <g class="st2">
      <path id="path3" class="st11" d="M-3822.8,683.4c-14.8,0-22.4,17.5-22.4,52.4.2,38,1.6,53.2,22,56.4,24.4-3.3,22.6-25.6,23.9-55.5,0-35.5-7.9-53.2-23.7-53.2M-3821.3,833.3c-91.2,3-92.6-192.7-1.7-191.2,92.3-3.2,93.1,192.3,1.7,191.2"/>
    </g>
    <g class="st8">
      <path id="path5" class="st7" d="M-3912.2,716.6c.7,27.5,1.2,67.9-17.1,86-23.1,28.8-76.3,26.5-98-4.7-23.9-29.5-24.3-112.7,0-142,27.5-36.6,90.5-32.7,109.1,17.4l-39.4,16.2c-7.4-18.7-30-24.4-38.4-3.6-6.7,14.1-7.5,68.6.7,82.7,12,23.9,42.2,13.6,40.2-16.6h-19.2v-35.2h62.2v-.2h0Z"/>
    </g>
    <g class="st0">
      <path id="path7" class="st11" d="M-3511.6,683.4c-14.8,0-22.4,17.5-22.4,52.4.2,38,1.6,53.2,22,56.4,24.4-3.3,22.6-25.6,23.9-55.5,0-35.5-7.9-53.2-23.7-53.2M-3510,833.3c-91.2,3-92.6-192.7-1.7-191.2,92.3-3.2,93.1,192.3,1.7,191.2"/>
    </g>
    <g class="st1">
      <path id="path9" class="st11" d="M-3349.2,765.8c-6.2-27-10.8-52.7-13.8-77.1h-.5c-3.3,25.1-7.9,50.8-13.7,77.1,0,0,28.5,0,28.1,0h0ZM-3291.5,828.8h-42.9l-6.9-30.4h-43.5l-7.2,30.4h-42l48.1-181.6h46.3l48.1,181.6h0Z"/>
    </g>
    <g class="st9">
      <path id="path11" class="st11" d="M-3292.3,647.2h98.4v41.5h-28.4v140.1h-41.8v-140.1h-28.2v-41.5h0Z"/>
    </g>
    <g class="st3">
      <path id="path15" d="M-3595.7,727c.7,27.5,1.2,67.9-17.1,86-23.1,28.8-76.3,26.5-98-4.7-23.9-29.5-24.3-112.7,0-142,27.5-36.6,90.5-32.7,109.1,17.4l-39.4,16.2c-7.4-18.7-30-24.4-38.4-3.6-6.7,14.1-7.5,68.6.7,82.7,12,23.9,42.2,13.6,40.2-16.6h-19.2v-35.2h62.2v-.2h0Z"/>
    </g>
    <g>
      <path id="path29" d="M-1710.6,1033v1.3h0l-.2,1.6-1.9,17.7h-50.9l2.2-21.1c.2-2.4-1.6-4.4-4-4.4h-42.9l-9.7,92.6h47.3l3.7-34.8h-12.4l2-18.9h63.3l-3.1,29.3-2.6,24.4-2,18.8h-127.1c-10.8,0-19.6-8.8-19.6-19.6s0-1.3,0-2v-.2l9-86,.2-1.5c1.3-9.2,9-16.3,18.5-16.8h111.3c10.4.5,18.7,9.1,18.7,19.6h.2Z"/>
      <path id="path31" class="st11" d="M-1546.8,1033.1v.4h0l-.4,3.4h0l-8.8,84.1-.2,2.1c-1.5,9.3-9.6,16.5-19.3,16.5h-108.4c-10.8,0-19.6-8.8-19.6-19.6s0-1.2,0-1.8h0v-.6h0l9-85.8h0v-1.3h0c1.3-9.5,9.5-16.9,19.4-16.9h108.4c10.8,0,19.6,8.8,19.6,19.6h.3ZM-1606.1,1120.7l9.8-92.9h-47.4l-9.8,92.9h47.4Z"/>
      <path id="path32" d="M-1382.3,1033v1.3h0l-.2,1.6-1.9,17.7h-50.9l2.2-21.1c.2-2.4-1.6-4.4-4-4.4h-42.9l-9.7,92.6h47.3l3.7-34.8h-12.4l2-18.9h63.3l-3.1,29.3-2.6,24.4-2,18.8h-127.1c-10.8,0-19.6-8.8-19.6-19.6s0-1.3,0-2v-.2l9-86,.2-1.5c1.3-9.2,9-16.3,18.5-16.8h111.3c10.4.5,18.7,9.1,18.7,19.6h.2Z"/>
      <path id="path33" class="st11" d="M-1218.4,1033.1v.4h0l-.4,3.4h0l-8.8,84.1-.2,2.1c-1.5,9.3-9.6,16.5-19.3,16.5h-108.4c-10.8,0-19.6-8.8-19.6-19.6s0-1.2,0-1.8h0v-.6h0l9-85.8h0v-1.3h0c1.3-9.5,9.5-16.9,19.4-16.9h108.4c10.8,0,19.6,8.8,19.6,19.6h.3ZM-1277.8,1120.7l9.8-92.9h-47.4l-9.8,92.9h47.4Z"/>
      <path id="path34" class="st11" d="M-1074.3,1013.5c10.7,0,19.3,8.5,19.6,19.1l-.5,5-10.7,101.9h-50.1l6.6-62.6h-47.6l-6.6,62.6h-50l11.2-106.2.5-4.6c2-8.7,9.8-15.2,19.1-15.2h108.6,0ZM-1104.4,1028.1h-47.6l-3.1,29.9h47.6l3.1-29.9Z"/>
      <path id="path35" class="st11" d="M-896,1013.5l-1.5,14.5h-50.2l-11.7,111.5h-47.3l11.7-111.5h-50.3l1.5-14.5h147.9,0Z"/>
    </g>
  </g>
  <path class="st4" d="M1541,735.7"/>
</svg>